<svg width="18" height="18" viewBox="0 0 18 18" fill="none" xmlns="http://www.w3.org/2000/svg">
<path fill-rule="evenodd" clip-rule="evenodd" d="M12.0305 0.0177453C12.0436 -0.000947982 12.0693 -0.00549094 12.088 0.00759823L13.3661 0.902525C13.3848 0.915613 13.3893 0.941376 13.3762 0.960069L11.5974 3.50055C12.4622 3.77684 13.0514 4.07486 13.0514 4.07486C13.0514 4.07486 11.6112 6.55205 9.16858 6.55205C6.72595 6.55205 4.99024 4.24326 4.99024 4.24326C4.99024 4.24326 5.60569 3.85049 6.518 3.51363L4.56681 1.18833C4.55215 1.17084 4.55444 1.14478 4.57191 1.13011L5.76713 0.1272C5.78463 0.112532 5.81068 0.114812 5.82535 0.132293L8.29586 3.07654C8.5074 3.05261 8.7229 3.03923 8.94038 3.03923C9.25296 3.03923 9.56515 3.063 9.86992 3.10332L12.0305 0.0177453ZM12.5137 6.66937C13.1656 6.20383 14.1519 4.98875 14.1519 4.98875C14.1519 4.98875 16.6714 6.98528 16.6714 11.2187C16.6714 15.452 12.3156 17.9999 12.3156 17.9999C12.3156 17.9999 10.2345 15.8983 9.72363 13.2341C9.21277 10.5699 10.4794 7.6116 10.4794 7.6116C10.4794 7.6116 11.8618 7.13491 12.5137 6.66937ZM5.49357 6.66937C4.84174 6.20383 3.85539 4.98875 3.85539 4.98875C3.85539 4.98875 1.33594 6.98528 1.33594 11.2187C1.33594 15.452 5.69168 17.9999 5.69168 17.9999C5.69168 17.9999 7.77277 15.8983 8.28366 13.2341C8.79452 10.5699 7.52794 7.6116 7.52794 7.6116C7.52794 7.6116 6.14544 7.13491 5.49357 6.66937Z" fill="#FAFAFA"/>
</svg>
