<svg width="18" height="18" viewBox="0 0 18 18" fill="none" xmlns="http://www.w3.org/2000/svg">
<g clip-path="url(#clip0_9_1153)">
<path fill-rule="evenodd" clip-rule="evenodd" d="M8.06439 15.9207C8.40636 15.973 8.75659 16.0001 9.11322 16.0001C12.9102 16.0001 15.9882 12.9221 15.9882 9.12513C15.9882 5.32812 12.9102 2.25007 9.11322 2.25007C8.85847 2.25007 8.60693 2.26393 8.35939 2.29093C10.2429 3.71789 11.4882 6.18977 11.4882 9.00011C11.4882 11.9547 10.1118 14.5351 8.06439 15.9207ZM8.9882 18.0002C13.9588 18.0002 17.9882 13.9707 17.9882 9.00011C17.9882 4.02952 13.9588 6.10352e-05 8.9882 6.10352e-05C4.01761 6.10352e-05 -0.0118408 4.02952 -0.0118408 9.00011C-0.0118408 13.9707 4.01761 18.0002 8.9882 18.0002Z" fill="#FAFAFA"/>
</g>
<defs>
<clipPath id="clip0_9_1153">
<rect width="18.0001" height="18.0001" fill="white"/>
</clipPath>
</defs>
</svg>
