<svg width="18" height="18" viewBox="0 0 18 18" fill="none" xmlns="http://www.w3.org/2000/svg">
<g clip-path="url(#clip0_9_1106)">
<path fill-rule="evenodd" clip-rule="evenodd" d="M9.86836 8.96077C9.99035 8.88638 10.0938 8.7305 10.1773 8.55724C11.2758 9.00619 12.0477 10.0671 12.0477 11.3043C12.0477 12.9478 10.6854 14.2802 9.00491 14.2802C8.31507 14.2802 7.67885 14.0557 7.16848 13.6773C7.00107 13.598 6.86332 13.5219 6.75061 13.4595C6.57578 13.3629 6.46113 13.2995 6.38935 13.3094C6.1795 13.3383 6.24042 13.5314 6.29579 13.7068C6.33338 13.826 6.36843 13.937 6.31418 13.9827C6.25744 14.0307 6.07364 13.8554 5.85887 13.6507C5.56651 13.3719 5.21677 13.0385 5.05185 13.1386C4.92146 13.2178 5.04806 13.4327 5.20303 13.6956L5.21452 13.7152C5.27998 13.8263 5.35585 13.9395 5.42507 14.0428C5.5658 14.2527 5.67915 14.4219 5.62244 14.4505C5.55389 14.4851 5.07625 14.1627 4.67375 13.7152C4.51839 13.5424 4.36792 13.3552 4.22807 13.1812C3.92196 12.8003 3.66694 12.483 3.52378 12.5206C3.35156 12.5658 3.48184 12.921 3.67326 13.2628C3.76277 13.4227 3.86807 13.5855 3.95923 13.7264C4.10101 13.9456 4.20863 14.1119 4.1696 14.1324C4.11694 14.1599 3.65354 13.708 3.3388 13.1386C3.15185 12.8004 2.99488 12.4266 2.8678 12.124C2.72998 11.7958 2.62732 11.5514 2.55972 11.5268C2.32486 11.4413 2.32486 11.9202 2.41905 12.6113C2.43134 12.7015 2.44964 12.7961 2.47217 12.8923C3.38568 15.8481 6.19191 18.0002 9.51204 18.0002C13.5732 18.0002 16.8654 14.7803 16.8654 10.8083C16.8654 7.02783 13.8831 3.92869 10.094 3.63854C10.0988 3.46045 10.1917 3.10729 10.1917 3.10729C10.1917 3.10729 10.8606 1.48884 10.896 1.14299C10.8983 1.12004 10.9011 1.0951 10.9041 1.06853C10.9458 0.694854 11.0233 6.10352e-05 10.4256 6.10352e-05C10.1063 6.10352e-05 9.9579 0.23753 9.78813 0.509123C9.72295 0.613386 9.6546 0.722684 9.57227 0.825499C8.97925 1.56606 7.98207 2.49085 7.41665 2.98355C6.22154 4.02491 5.04901 4.88076 4.36514 5.37991C4.05411 5.60692 3.84416 5.7602 3.77919 5.82351C3.2896 6.3008 1.53416 9.4672 1.53416 9.4672C1.53416 9.4672 0.966474 10.4831 1.16825 10.6891C1.37003 10.8951 1.85663 10.8479 1.85663 10.8479C1.85663 10.8479 8.39365 9.34826 8.9789 9.23C9.13647 9.19815 9.2477 9.17976 9.3331 9.16566C9.56496 9.12738 9.60658 9.12049 9.86836 8.96077ZM5.24644 7.0336C4.89555 7.36713 4.3136 8.16325 4.3136 8.16325C4.3136 8.16325 5.39516 8.22987 5.99081 7.66367C6.5865 7.09744 6.45003 6.1325 6.45003 6.1325C6.45003 6.1325 5.5973 6.70007 5.24644 7.0336Z" fill="#FAFAFA"/>
</g>
<defs>
<clipPath id="clip0_9_1106">
<rect width="18.0001" height="18.0001" fill="white"/>
</clipPath>
</defs>
</svg>
