<svg width="18" height="18" viewBox="0 0 18 18" fill="none" xmlns="http://www.w3.org/2000/svg">
<g clip-path="url(#clip0_9_1161)">
<path fill-rule="evenodd" clip-rule="evenodd" d="M3.61148 14.2727L6.4986 13.4356L8.99225 17.9951C8.99552 18.001 9.00399 18.001 9.00722 17.9951L11.5009 13.4356L14.388 14.2727C14.3945 14.2746 14.4005 14.2686 14.3986 14.2621L13.5613 11.4321L17.995 9.00722C18.001 9.00399 18.001 8.99551 17.9951 8.99228L13.5248 6.54736L14.3986 3.59387C14.4005 3.5874 14.3945 3.58139 14.388 3.58325L11.4332 4.44005L9.00722 0.00443632C9.00399 -0.00147867 8.99552 -0.00147883 8.99228 0.00443618L6.56635 4.44005L3.61148 3.58325C3.60501 3.58139 3.599 3.5874 3.60093 3.59387L4.47475 6.54736L0.00443632 8.99228C-0.00147867 8.99551 -0.00147883 9.00399 0.00443618 9.00722L4.43819 11.4321L3.60093 14.2621C3.599 14.2686 3.60501 14.2746 3.61148 14.2727ZM5.85186 9.03085L7.89723 10.1495L9.01587 12.1948C9.01911 12.2008 9.02761 12.2008 9.03085 12.1948L10.1495 10.1495L12.1948 9.03085C12.2007 9.02761 12.2007 9.0191 12.1948 9.01587L10.1495 7.89723L9.03085 5.8519C9.02761 5.84595 9.01911 5.84595 9.01587 5.8519L7.89723 7.89723L5.85186 9.01587C5.84595 9.0191 5.84595 9.02761 5.85186 9.03085Z" fill="#FAFAFA"/>
</g>
<defs>
<clipPath id="clip0_9_1161">
<rect width="18.0001" height="18.0001" fill="white"/>
</clipPath>
</defs>
</svg>
