<svg width="18" height="18" viewBox="0 0 18 18" fill="none" xmlns="http://www.w3.org/2000/svg">
<g clip-path="url(#clip0_9_1155)">
<path fill-rule="evenodd" clip-rule="evenodd" d="M3.10185 1.49639C3.31969 0.63632 4.09887 -6.10352e-05 5.02665 -6.10352e-05C5.72257 -6.10352e-05 6.33489 0.357997 6.68941 0.899944H7.26995C7.63062 0.529803 8.13451 0.29994 8.69213 0.29994C9.50966 0.29994 10.2118 0.79406 10.5162 1.49995H11.0022C11.3068 1.30982 11.6666 1.19994 12.0521 1.19994C12.8697 1.19994 13.5718 1.69406 13.8762 2.39995H15.1979C15.2092 2.39995 15.2198 2.40299 15.2289 2.4083C15.2892 2.40278 15.3504 2.39995 15.4121 2.39995C16.5087 2.39995 17.3976 3.28887 17.3976 4.38542V10.339L17.3976 10.35L17.3976 10.361V10.4468C17.3976 10.4831 17.3966 10.5193 17.3947 10.5553C17.2752 14.6854 13.5614 18 8.99757 18C4.35836 18 0.597534 14.575 0.597534 10.35C0.597534 8.31061 1.47381 6.45758 2.90216 5.0862C2.8986 7.0744 2.93218 9.12986 3.08699 9.09459C3.5015 9.00009 3.17763 2.84197 3.10185 1.49639Z" fill="#FAFAFA"/>
</g>
<defs>
<clipPath id="clip0_9_1155">
<rect width="18.0001" height="18.0001" fill="white"/>
</clipPath>
</defs>
</svg>
