<svg width="18" height="18" viewBox="0 0 18 18" fill="none" xmlns="http://www.w3.org/2000/svg">
<g clip-path="url(#clip0_9_1159)">
<path fill-rule="evenodd" clip-rule="evenodd" d="M12.3839 13.9008C12.6063 13.0876 12.1746 11.4158 12.1746 11.4158C12.1746 11.4158 11.8615 12.7778 11.3723 13.2811C10.9549 13.7105 10.4435 14.0083 9.71017 14.0866C10.3098 13.7953 10.7221 13.1881 10.7221 12.4862C10.7221 11.5009 9.90958 10.7021 8.90727 10.7021C7.90496 10.7021 7.09238 11.5009 7.09238 12.4862C7.09238 12.7553 7.15303 13.0105 7.26156 13.2393C6.63465 12.7398 6.53607 11.9391 6.53607 11.9391C6.53607 11.9391 5.83603 14.8455 7.76493 16.2126C9.69379 17.5798 13.4724 16.4047 13.4724 16.4047C13.4724 16.4047 8.06499 20.2094 4.05807 16.0684C0.606436 12.5013 3.15719 7.80502 3.15719 7.80502C3.15719 7.80502 3.04703 8.24068 3.04703 8.7464C3.04703 9.25213 3.32122 9.63691 3.32122 9.63691C3.32122 9.63691 4.13914 7.91288 4.77568 7.21175C5.37812 6.54821 6.13332 6.01004 6.78561 5.5452C7.28771 5.18738 7.72886 4.87301 7.99232 4.57836C9.44347 2.95574 8.5537 0.000183105 8.5537 0.000183105C8.5537 0.000183105 10.1895 1.4423 10.6462 3.30481C10.8203 4.01477 10.7083 4.82256 10.6082 5.54492C10.4456 6.71759 10.3142 7.66517 11.4886 7.60368C13.3864 7.50429 11.7373 4.57836 11.7373 4.57836C11.7373 4.57836 16.0423 6.84103 15.7207 10.7983C15.399 14.7556 11.0151 15.6552 11.0151 15.6552C11.0151 15.6552 12.1615 14.714 12.3839 13.9008Z" fill="#FAFAFA"/>
</g>
<defs>
<clipPath id="clip0_9_1159">
<rect width="18.0001" height="18.0001" fill="white"/>
</clipPath>
</defs>
</svg>
