<svg width="18" height="18" viewBox="0 0 18 18" fill="none" xmlns="http://www.w3.org/2000/svg">
<g clip-path="url(#clip0_9_1147)">
<path fill-rule="evenodd" clip-rule="evenodd" d="M6.28288 16.7953C8.91972 16.7953 11.1772 15.3298 12.1091 13.2523C12.1205 13.227 8.36748 14.2276 8.48715 13.8739C8.54059 13.7159 10.8412 12.8755 12.5174 11.8952C13.4808 11.3317 13.9244 10.139 13.9244 10.139C13.9244 10.139 12.3013 10.927 11.4808 11.1269C9.82735 11.5298 8.37184 11.4864 8.37184 11.4445C8.37184 11.3537 10.7887 10.8945 14.1478 8.84748C15.7278 7.88465 16.157 6.22618 16.157 6.22618C16.157 6.22618 14.4199 7.26091 13.3697 7.60252C10.8794 8.41263 8.60682 8.65676 8.60682 8.54714C8.60682 8.31244 10.6068 7.76248 12.7272 6.73504C13.8297 6.20083 14.7845 5.50291 15.891 4.72676C17.7015 3.45687 18.0001 1.19519 18.0001 1.19519C18.0001 1.19519 16.2144 2.34692 15.343 2.7294C11.7472 4.30763 8.57216 5.13549 6.28288 5.31472C2.82714 5.58528 0 7.99642 0 11.1269C0 14.2575 2.81293 16.7953 6.28288 16.7953Z" fill="#FAFAFA"/>
</g>
<defs>
<clipPath id="clip0_9_1147">
<rect width="18.0001" height="18.0001" fill="white"/>
</clipPath>
</defs>
</svg>
