<svg width="18" height="18" viewBox="0 0 18 18" fill="none" xmlns="http://www.w3.org/2000/svg">
<g clip-path="url(#clip0_9_1157)">
<path fill-rule="evenodd" clip-rule="evenodd" d="M3.42473 15.4918C3.36294 15.4337 3.30184 15.3745 3.24145 15.3141C0.0533051 12.126 0.0533057 6.95694 3.24145 3.76881C6.42958 0.580654 16.5882 0.367371 16.5882 0.367371C16.5882 0.367371 17.9749 12.126 14.7868 15.3141C11.9553 18.1456 7.56134 18.4623 4.38028 16.2644L6.94346 13.1189L11.0409 12.2343L7.6962 11.8999L9.82183 9.7356L12.2414 9.20554L10.3281 8.63893L12.2414 5.18741L9.51997 8.23997L8.46904 6.75697L8.83899 9.20554L6.94346 11.3424L6.0648 8.63889V12.2343L3.42473 15.4918Z" fill="#FAFAFA"/>
</g>
<defs>
<clipPath id="clip0_9_1157">
<rect width="18.0001" height="18.0001" fill="white"/>
</clipPath>
</defs>
</svg>
