<svg width="18" height="18" viewBox="0 0 18 18" fill="none" xmlns="http://www.w3.org/2000/svg">
<g clip-path="url(#clip0_9_1149)">
<path fill-rule="evenodd" clip-rule="evenodd" d="M3.96438 15.4601C3.95949 15.4601 3.95608 15.4552 3.9577 15.4506L8.55318 2.46553C8.5542 2.4627 8.55687 2.46082 8.55986 2.46082H13.4657C13.4686 2.46082 13.4714 2.46272 13.4723 2.46556L17.9996 15.4507C18.0012 15.4553 17.9978 15.4601 17.993 15.4601H4.10248H3.96438ZM0.0070772 15.5109C0.00214146 15.5109 -0.00127566 15.5059 0.000455653 15.5013L3.42257 6.36515C3.42361 6.36237 3.42624 6.36054 3.42919 6.36054H6.40262C6.40754 6.36054 6.41095 6.36543 6.40927 6.37004L3.10018 15.5062C3.09916 15.509 3.09651 15.5109 3.09353 15.5109H0.0070772Z" fill="#FAFAFA"/>
</g>
<defs>
<clipPath id="clip0_9_1149">
<rect width="18.0001" height="18.0001" fill="white"/>
</clipPath>
</defs>
</svg>
