<svg width="18" height="18" viewBox="0 0 18 18" fill="none" xmlns="http://www.w3.org/2000/svg">
<g clip-path="url(#clip0_9_1158)">
<path fill-rule="evenodd" clip-rule="evenodd" d="M13.2975 1.0194L13.3528 5.8833L9.1105 7.9198L9.05818 3.32735L13.2975 1.0194Z" fill="#FAFAFA"/>
<path fill-rule="evenodd" clip-rule="evenodd" d="M17.5503 8.68398L13.3506 11.0861L9.14853 8.68018L13.3485 6.47405L17.5503 8.68398Z" fill="#FAFAFA"/>
<path fill-rule="evenodd" clip-rule="evenodd" d="M8.40174 8.68398L4.20212 11.0861L0 8.68018L4.19994 6.47405L8.40174 8.68398Z" fill="#FAFAFA"/>
<path fill-rule="evenodd" clip-rule="evenodd" d="M4.15445 0.999756L8.51336 3.15856L8.40191 7.86306L4.28629 5.82476L4.15445 0.999756Z" fill="#FAFAFA"/>
<path fill-rule="evenodd" clip-rule="evenodd" d="M13.4166 16.2943L9.05769 14.1354L9.16914 9.43092L13.2848 11.4693L13.4166 16.2943Z" fill="#FAFAFA"/>
<path fill-rule="evenodd" clip-rule="evenodd" d="M4.3056 16.3382L4.2502 11.4743L8.49256 9.43779L8.54487 14.0302L4.3056 16.3382Z" fill="#FAFAFA"/>
</g>
<defs>
<clipPath id="clip0_9_1158">
<rect width="18" height="18" fill="white"/>
</clipPath>
</defs>
</svg>
