<svg width="18" height="18" viewBox="0 0 18 18" fill="none" xmlns="http://www.w3.org/2000/svg">
<g clip-path="url(#clip0_9_1148)">
<path fill-rule="evenodd" clip-rule="evenodd" d="M15.0407 13.8323C16.8584 12.3789 18.0001 10.2789 18.0001 7.9436C18.0001 3.55646 13.9706 0 9.00005 0C4.02946 0 0 3.55646 0 7.9436C0 10.1946 1.0608 12.2269 2.76524 13.6724C2.66194 14.029 2.60528 14.417 2.60528 14.8227C2.60528 16.5775 3.66566 18.0001 4.97372 18.0001C5.82366 18.0001 6.56905 17.3995 6.98689 16.4973C7.40472 17.3995 8.15011 18.0001 9.00005 18.0001C9.77483 18.0001 10.4627 17.501 10.8948 16.7294C11.3269 17.501 12.0148 18.0001 12.7895 18.0001C14.0976 18.0001 15.158 16.5775 15.158 14.8227C15.158 14.4769 15.1168 14.1439 15.0407 13.8323ZM14.2106 8.10113C14.2106 10.3284 11.8247 12.134 8.88164 12.134C5.93852 12.134 3.55266 10.3284 3.55266 8.10113C3.55266 5.87383 5.93852 4.06823 8.88164 4.06823C11.8247 4.06823 14.2106 5.87383 14.2106 8.10113Z" fill="#FAFAFA"/>
</g>
<defs>
<clipPath id="clip0_9_1148">
<rect width="18.0001" height="18.0001" fill="white"/>
</clipPath>
</defs>
</svg>
