<svg width="18" height="18" viewBox="0 0 18 18" fill="none" xmlns="http://www.w3.org/2000/svg">
<g clip-path="url(#clip0_9_1150)">
<path fill-rule="evenodd" clip-rule="evenodd" d="M16.0288 14.9477C16.0288 14.9477 13.7591 16.7681 9.2425 16.0148C5.8158 15.4432 3.98816 11.6658 3.98816 9.6354C3.98816 4.82143 7.55112 3.72592 9.95994 3.72592C12.3687 3.72592 13.9401 6.07437 13.9401 7.89266C13.9401 9.71095 12.6541 11.3014 10.6527 11.3014C8.65141 11.3014 8.05868 9.89633 8.05868 8.60458C8.05868 7.31286 9.10377 6.85776 10.0569 6.85776C11.01 6.85776 11.3364 7.67149 11.3364 8.37086C11.3364 9.07026 10.7937 9.32071 10.3411 9.32071C9.88853 9.32071 9.84378 9.09237 9.67056 8.8524C9.49731 8.61245 9.89149 7.70415 9.2425 7.70415C8.59351 7.70415 8.47254 8.74833 8.47254 8.74833C8.47254 8.74833 8.70914 10.764 10.6527 10.7292C12.5964 10.6944 13.5184 9.1918 13.2504 7.70415C12.9825 6.21647 11.5387 4.63566 9.00484 4.95509C6.47098 5.27452 5.43643 7.83476 5.89244 10.5708C6.34846 13.3068 9.6262 14.8921 12.2033 14.3218C14.7805 13.7514 17.3473 11.8857 17.3473 7.15525C17.3473 2.42481 13.2504 -0.418613 8.36528 0.0499994C3.48011 0.518609 0.447624 4.78954 0.64173 9.92115C0.835836 15.0528 5.70513 17.8476 9.82262 17.9916C13.9401 18.1357 16.4643 15.7522 16.4643 15.7522C16.4643 15.7522 17.032 15.246 16.8094 14.8507C16.5869 14.4554 16.0288 14.9477 16.0288 14.9477Z" fill="#FAFAFA"/>
</g>
<defs>
<clipPath id="clip0_9_1150">
<rect width="18.0001" height="18.0001" fill="white"/>
</clipPath>
</defs>
</svg>
