<svg width="18" height="18" viewBox="0 0 18 18" fill="none" xmlns="http://www.w3.org/2000/svg">
<g clip-path="url(#clip0_9_1151)">
<path fill-rule="evenodd" clip-rule="evenodd" d="M13.8914 8.60526C13.8904 8.60386 13.89 8.6021 13.8902 8.60038L15.0386 1.90426C15.0391 1.90118 15.0418 1.89893 15.0449 1.89893H15.4084C15.4112 1.89893 15.4136 1.90074 15.4145 1.90342L18.0016 10.095C18.0025 10.0975 18.0016 10.1003 17.9995 10.102L16.0919 11.5913C16.0891 11.5935 16.085 11.593 16.0828 11.59L13.8914 8.60526ZM-0.0354004 13.0443C-0.0354004 13.0471 -0.0336146 13.0495 -0.0309745 13.0504L3.90124 14.3361C3.90314 14.3367 3.90525 14.3364 3.9069 14.3353L12.6963 8.2673C12.6978 8.26628 12.6988 8.2647 12.699 8.26294L13.6416 1.9386C13.6422 1.93471 13.6392 1.93123 13.6353 1.93123H5.85C5.84807 1.93123 5.84627 1.93208 5.84504 1.93355L-0.0339229 9.02563C-0.034878 9.02679 -0.0354004 9.02823 -0.0354004 9.02974V13.0443ZM5.53981 14.6637L9.83568 16.0709C9.83762 16.0715 9.83976 16.0712 9.84141 16.07L14.9559 12.4014C14.9588 12.3993 14.9595 12.3954 14.9576 12.3926L13.0403 9.53944C13.0383 9.53645 13.0343 9.53568 13.0313 9.53772L5.53981 14.6637Z" fill="#FAFAFA"/>
</g>
<defs>
<clipPath id="clip0_9_1151">
<rect width="18.0001" height="18.0001" fill="white"/>
</clipPath>
</defs>
</svg>
