<svg width="18" height="18" viewBox="0 0 18 18" fill="none" xmlns="http://www.w3.org/2000/svg">
<g clip-path="url(#clip0_9_1152)">
<path fill-rule="evenodd" clip-rule="evenodd" d="M0.00179687 8.94874C-0.000597821 8.94467 -0.000599024 8.9396 0.00179367 8.93549L4.52797 1.20228C4.53033 1.19827 4.53465 1.1958 4.53929 1.1958H13.5104C13.5151 1.1958 13.5194 1.19829 13.5218 1.20234L17.9983 8.93556C18.0007 8.9396 18.0007 8.94463 17.9983 8.94867L13.5218 16.6732C13.5194 16.6773 13.5151 16.6798 13.5104 16.6798H4.53929C4.53465 16.6798 4.53033 16.6773 4.52797 16.6733L0.00179687 8.94874ZM13.1702 8.93778C13.1702 11.2401 11.3038 13.1065 9.00146 13.1065C6.69913 13.1065 4.83271 11.2401 4.83271 8.93778C4.83271 6.63542 6.69913 4.76903 9.00146 4.76903C11.3038 4.76903 13.1702 6.63542 13.1702 8.93778Z" fill="#FAFAFA"/>
</g>
<defs>
<clipPath id="clip0_9_1152">
<rect width="18.0001" height="18.0001" fill="white"/>
</clipPath>
</defs>
</svg>
