<svg width="18" height="18" viewBox="0 0 18 18" fill="none" xmlns="http://www.w3.org/2000/svg">
<path fill-rule="evenodd" clip-rule="evenodd" d="M14.842 12.1824C14.842 15.3951 12.2278 17.9995 9.00306 17.9995C5.77826 17.9995 3.16406 15.3951 3.16406 12.1824C3.16406 9.05785 8.68721 0.476479 8.99012 0.00819209C8.99704 -0.00248662 9.0091 -0.00248653 9.01599 0.0081922C9.3189 0.476479 14.842 9.05785 14.842 12.1824ZM8.02971 16.1346C5.06673 15.4862 5.57376 12.204 5.57376 12.204C5.57376 12.204 6.38285 14.1854 8.3463 14.8272C10.3097 15.469 12.6825 14.5277 12.6825 14.5277C12.6825 14.5277 10.9927 16.7828 8.02971 16.1346Z" fill="#FAFAFA"/>
</svg>
